<svg xmlns="http://www.w3.org/2000/svg" width="600" height="600" viewBox="0 0 600 600" version="1.1"><path d="M 290.961 23.250 C 249.587 63.241, 228.001 119.672, 232.844 175.186 C 235.406 204.555, 242.261 238.870, 247.648 249.287 C 249.805 253.457, 249.310 253.448, 238.902 249.119 C 165.034 218.398, 83.331 233.718, 26.750 288.901 C 13.982 301.353, 14.252 299.799, 23.250 309.086 C 76.455 363.999, 149.809 380.843, 231.468 356.898 C 239.186 354.635, 247.170 351.932, 249.210 350.892 C 251.251 349.851, 253.152 349, 253.435 349 C 253.718 349, 252.359 352.488, 250.416 356.750 C 215.826 432.619, 231.861 519.626, 290.961 576.750 C 300.260 585.737, 298.647 586.018, 311.099 573.250 C 368.002 514.905, 382.781 426.735, 347.935 353.500 C 344.097 345.433, 343.518 344.037, 344.695 345.689 C 346.118 347.685, 358.700 352.879, 372.019 356.968 C 450.029 380.921, 523.887 363.647, 576.750 309.086 C 585.748 299.799, 586.018 301.353, 573.250 288.901 C 515.013 232.104, 436.038 218.492, 354.818 251.254 C 348.351 253.862, 346.370 254.340, 347.054 253.128 C 379.517 195.598, 369.433 96.379, 325.647 42.500 C 304.843 16.901, 300.197 14.323, 290.961 23.250 M 238 72.747 C 156.669 99.771, 103.256 150.643, 79.717 223.500 C 71.838 247.889, 72.314 252.308, 80.965 235.069 C 108.651 179.900, 184.900 163.329, 181.633 213.191 C 180.990 223, 180.990 223, 193.958 223 C 208.678 223, 210.454 223.492, 225.744 231.804 C 237.036 237.944, 237.197 237.746, 230.061 226.500 C 221.124 212.415, 220.570 210.589, 220.726 195.750 C 220.860 183, 220.860 183, 212.180 182.956 C 189.371 182.841, 181.448 171.313, 184.966 143.362 C 187.899 120.064, 208.475 94.524, 238.929 76.383 C 247.538 71.255, 247.143 69.709, 238 72.747 M 354.500 72.578 C 355.600 73.397, 361.450 77.507, 367.500 81.712 C 397.490 102.558, 411.846 122.475, 414.260 146.583 C 416.831 172.256, 408.592 182.979, 386.285 182.994 C 378.070 183, 378.070 183, 378.258 195.750 C 378.475 210.456, 376.938 215.030, 366.895 229.557 C 360.552 238.734, 360.925 239.300, 369.874 234.073 C 387.465 223.800, 389.981 223, 404.712 223 C 417.981 223, 417.981 223, 417.352 212.718 C 416.446 197.916, 420.526 192.576, 437.854 185.886 C 462.236 176.472, 499.299 199.059, 517.577 234.470 C 523.910 246.739, 523.790 246.544, 524.534 245.799 C 527.581 242.752, 508.410 191.809, 499.050 178.081 C 498.082 176.662, 494.463 171.225, 491.007 166 C 471.096 135.895, 441.102 109.451, 406.358 91.367 C 386.662 81.116, 346.347 66.509, 354.500 72.578 M 286.691 108.573 C 263.561 114.176, 246.308 138.460, 248.345 162.550 C 252.717 214.275, 325.209 226.567, 347.154 179.305 C 365.192 140.458, 329.147 98.291, 286.691 108.573 M 292.734 124.030 C 251.747 134.323, 257.936 193.499, 300 193.499 C 339.183 193.499, 348.798 139.892, 312.171 125.638 C 306.769 123.535, 297.692 122.784, 292.734 124.030 M 145.461 252.356 C 107.653 262.735, 94.387 307.621, 120.719 336.064 C 149.062 366.677, 198.677 353.861, 209.065 313.244 C 218.510 276.318, 182.777 242.111, 145.461 252.356 M 423.344 252.021 C 376.143 264.223, 369.600 326.580, 413.278 347.946 C 452.278 367.024, 496.469 330.773, 485.508 288.693 C 478.532 261.911, 450.060 245.115, 423.344 252.021 M 147.419 268.822 C 122.355 277.486, 115.248 310.147, 134.554 327.943 C 160.853 352.185, 202.475 326.682, 192.522 292.425 C 187.013 273.464, 165.921 262.426, 147.419 268.822 M 425.254 268.401 C 386.967 280.895, 395.349 337.314, 435.500 337.373 C 466.819 337.420, 482.572 299.583, 460.462 277.419 C 451.759 268.695, 436.405 264.762, 425.254 268.401 M 74.024 356.191 C 74.129 361.797, 81.118 383.955, 87.053 397.500 C 114.595 460.353, 162.522 502.632, 233.700 526.868 C 245.382 530.845, 249.804 530.138, 240.624 525.761 C 220.316 516.076, 190.970 484.544, 186.592 467.703 C 178.542 436.737, 187.123 419.091, 210.678 418.175 C 220.856 417.779, 220.856 417.779, 220.678 405.139 C 220.485 391.412, 222.061 386.689, 232.406 370.003 C 236.278 363.758, 236.152 362.044, 232.037 364.974 C 219.120 374.171, 208.054 378, 194.388 378 C 181.047 378, 181.047 378, 181.600 388.750 C 182.355 403.435, 177.990 409.108, 161.249 415.201 C 136.097 424.354, 99.569 402.238, 81.503 366.918 C 76.206 356.563, 73.972 353.358, 74.024 356.191 M 523.322 356.140 C 522.715 356.888, 520.521 360.875, 518.446 365 C 503.292 395.137, 466.516 420.235, 443.331 416.264 C 424.016 412.955, 418 405.731, 418 385.844 C 418 377.962, 418 377.962, 415.422 378.609 C 400.966 382.237, 388.904 379.224, 371.569 367.655 C 359.505 359.604, 359.501 359.607, 366.617 370.635 C 377.340 387.253, 378.410 390.437, 378.236 405.211 C 378.087 418, 378.087 418, 386.293 418.006 C 410.012 418.022, 419.075 433.638, 413.165 464.309 C 409.560 483.021, 386.026 509.237, 357.392 526.439 C 347.195 532.565, 360.504 529.167, 386.500 519.009 C 436.397 499.509, 482.108 457.922, 505.767 410.500 C 516.704 388.578, 529.725 348.259, 523.322 356.140 M 289.325 388.045 C 258.486 394.142, 240.041 428.619, 252.110 457.608 C 269.392 499.124, 328.002 500.411, 347.056 459.694 C 364.698 421.995, 330.744 379.855, 289.325 388.045 M 289.500 405.341 C 251.240 417.998, 259.790 473.500, 300 473.500 C 345.556 473.500, 347.019 406.032, 301.500 404.318 C 296.723 404.139, 291.888 404.550, 289.500 405.341" stroke="none" fill="#d4c4a3" fill-rule="evenodd"/></svg>