<svg width="20" height="20" viewBox="0 0 20 20" fill="none" xmlns="http://www.w3.org/2000/svg">
<g id="text-resize">
<path id="primary" d="M5.0013 3.33337C3.16039 3.33337 1.66797 4.82587 1.66797 6.66671V13.3334C1.66797 15.1742 3.16039 16.6667 5.0013 16.6667H15.0013C16.8422 16.6667 18.3346 15.1742 18.3346 13.3334V6.66671C18.3346 4.82587 16.8422 3.33337 15.0013 3.33337H5.0013ZM5.0013 5.00004H15.0013C15.9218 5.00004 16.668 5.74587 16.668 6.66671V13.3334C16.668 14.2542 15.9218 15 15.0013 15H5.0013C4.0808 15 3.33464 14.2542 3.33464 13.3334V6.66671C3.33464 5.74587 4.0808 5.00004 5.0013 5.00004ZM14.168 6.66671C13.9547 6.66671 13.7317 6.73838 13.569 6.90088L8.56897 11.9009C8.24355 12.2267 8.24355 12.7734 8.56897 13.0992C8.89447 13.4242 9.44147 13.4242 9.76697 13.0992L14.767 8.0992C15.0924 7.77337 15.0924 7.22671 14.767 6.90088C14.6042 6.73838 14.3812 6.66671 14.168 6.66671ZM14.168 10.8334C13.9547 10.8334 13.7317 10.905 13.569 11.0675L12.7356 11.9009C12.4102 12.2267 12.4102 12.7734 12.7356 13.0992C13.0611 13.4242 13.6081 13.4242 13.9336 13.0992L14.767 12.2659C15.0924 11.94 15.0924 11.3934 14.767 11.0675C14.6042 10.905 14.3812 10.8334 14.168 10.8334Z" fill="#D1D5DB"/>
</g>
</svg>
